<mxfile host="app.diagrams.net" modified="2024-06-06T10:47:27.215Z" agent="Mozilla/5.0 (Windows NT 10.0; Win64; x64) AppleWebKit/537.36 (KHTML, like Gecko) Chrome/122.0.0.0 YaBrowser/24.4.0.0 Safari/537.36" etag="ifvfeTnpol17bEcK7HEc" version="24.4.13" type="device">
  <diagram id="C5RBs43oDa-KdzZeNtuy" name="Page-1">
    <mxGraphModel dx="1173" dy="671" grid="1" gridSize="10" guides="1" tooltips="1" connect="1" arrows="1" fold="1" page="1" pageScale="1" pageWidth="827" pageHeight="1169" math="0" shadow="0">
      <root>
        <mxCell id="WIyWlLk6GJQsqaUBKTNV-0" />
        <mxCell id="WIyWlLk6GJQsqaUBKTNV-1" parent="WIyWlLk6GJQsqaUBKTNV-0" />
        <mxCell id="ut6s2wXP7T1YypfvQDY1-1" value="" style="rounded=1;whiteSpace=wrap;html=1;strokeColor=#ffffff;fillColor=#000000;" vertex="1" parent="WIyWlLk6GJQsqaUBKTNV-1">
          <mxGeometry x="10" y="20" width="810" height="530" as="geometry" />
        </mxCell>
        <mxCell id="ut6s2wXP7T1YypfvQDY1-0" value="" style="ellipse;whiteSpace=wrap;html=1;aspect=fixed;" vertex="1" parent="WIyWlLk6GJQsqaUBKTNV-1">
          <mxGeometry x="40" y="70" width="30" height="30" as="geometry" />
        </mxCell>
        <mxCell id="ut6s2wXP7T1YypfvQDY1-7" style="edgeStyle=orthogonalEdgeStyle;rounded=0;orthogonalLoop=1;jettySize=auto;html=1;exitX=1;exitY=0.5;exitDx=0;exitDy=0;entryX=0.5;entryY=0;entryDx=0;entryDy=0;curved=1;strokeColor=#FFFFFF;" edge="1" parent="WIyWlLk6GJQsqaUBKTNV-1" source="ut6s2wXP7T1YypfvQDY1-2" target="ut6s2wXP7T1YypfvQDY1-5">
          <mxGeometry relative="1" as="geometry" />
        </mxCell>
        <mxCell id="ut6s2wXP7T1YypfvQDY1-2" value="&lt;font color=&quot;#ffffff&quot;&gt;Проанализировать заказ&lt;/font&gt;" style="rounded=1;whiteSpace=wrap;html=1;strokeColor=#FFFFFF;fillColor=#000000;strokeWidth=3;" vertex="1" parent="WIyWlLk6GJQsqaUBKTNV-1">
          <mxGeometry x="150" y="55" width="120" height="60" as="geometry" />
        </mxCell>
        <mxCell id="ut6s2wXP7T1YypfvQDY1-4" value="" style="endArrow=classic;html=1;rounded=0;strokeColor=#FFFFFF;exitX=1;exitY=0.5;exitDx=0;exitDy=0;entryX=0;entryY=0.5;entryDx=0;entryDy=0;" edge="1" parent="WIyWlLk6GJQsqaUBKTNV-1" source="ut6s2wXP7T1YypfvQDY1-21" target="ut6s2wXP7T1YypfvQDY1-2">
          <mxGeometry width="50" height="50" relative="1" as="geometry">
            <mxPoint x="390" y="350" as="sourcePoint" />
            <mxPoint x="440" y="300" as="targetPoint" />
          </mxGeometry>
        </mxCell>
        <mxCell id="ut6s2wXP7T1YypfvQDY1-5" value="" style="rhombus;whiteSpace=wrap;html=1;strokeColor=#FFFFFF;strokeWidth=2;fillColor=#000000;" vertex="1" parent="WIyWlLk6GJQsqaUBKTNV-1">
          <mxGeometry x="290" y="140" width="30" height="40" as="geometry" />
        </mxCell>
        <mxCell id="ut6s2wXP7T1YypfvQDY1-9" value="&lt;font color=&quot;#ffffff&quot;&gt;Проверить наличие товара на складе&lt;/font&gt;" style="rounded=1;whiteSpace=wrap;html=1;strokeColor=#FFFFFF;fillColor=#000000;strokeWidth=3;" vertex="1" parent="WIyWlLk6GJQsqaUBKTNV-1">
          <mxGeometry x="385" y="130" width="120" height="60" as="geometry" />
        </mxCell>
        <mxCell id="ut6s2wXP7T1YypfvQDY1-11" value="&lt;font color=&quot;#ffffff&quot;&gt;Начать заказ заново&lt;/font&gt;" style="rounded=1;whiteSpace=wrap;html=1;strokeColor=#FFFFFF;fillColor=#000000;strokeWidth=3;" vertex="1" parent="WIyWlLk6GJQsqaUBKTNV-1">
          <mxGeometry x="150" y="230" width="120" height="60" as="geometry" />
        </mxCell>
        <mxCell id="ut6s2wXP7T1YypfvQDY1-12" value="&lt;font color=&quot;#ffffff&quot;&gt;Проверить оплату&lt;/font&gt;" style="rounded=1;whiteSpace=wrap;html=1;strokeColor=#FFFFFF;fillColor=#000000;strokeWidth=3;" vertex="1" parent="WIyWlLk6GJQsqaUBKTNV-1">
          <mxGeometry x="670" y="230" width="120" height="60" as="geometry" />
        </mxCell>
        <mxCell id="ut6s2wXP7T1YypfvQDY1-13" value="&lt;font color=&quot;#ffffff&quot;&gt;Отклонить оплату&lt;/font&gt;" style="rounded=1;whiteSpace=wrap;html=1;strokeColor=#FFFFFF;fillColor=#000000;strokeWidth=3;glass=0;shadow=0;" vertex="1" parent="WIyWlLk6GJQsqaUBKTNV-1">
          <mxGeometry x="515" y="330" width="120" height="60" as="geometry" />
        </mxCell>
        <mxCell id="ut6s2wXP7T1YypfvQDY1-14" value="&lt;font color=&quot;#ffffff&quot;&gt;Отправить заказ&lt;/font&gt;" style="rounded=1;whiteSpace=wrap;html=1;strokeColor=#FFFFFF;fillColor=#000000;strokeWidth=3;" vertex="1" parent="WIyWlLk6GJQsqaUBKTNV-1">
          <mxGeometry x="670" y="441" width="120" height="60" as="geometry" />
        </mxCell>
        <mxCell id="ut6s2wXP7T1YypfvQDY1-15" style="edgeStyle=orthogonalEdgeStyle;rounded=0;orthogonalLoop=1;jettySize=auto;html=1;exitX=1;exitY=0.5;exitDx=0;exitDy=0;entryX=0;entryY=0.5;entryDx=0;entryDy=0;curved=1;strokeColor=#FFFFFF;" edge="1" parent="WIyWlLk6GJQsqaUBKTNV-1" source="ut6s2wXP7T1YypfvQDY1-5" target="ut6s2wXP7T1YypfvQDY1-9">
          <mxGeometry relative="1" as="geometry">
            <mxPoint x="300" y="95" as="sourcePoint" />
            <mxPoint x="355" y="190" as="targetPoint" />
          </mxGeometry>
        </mxCell>
        <mxCell id="ut6s2wXP7T1YypfvQDY1-16" value="" style="rhombus;whiteSpace=wrap;html=1;strokeColor=#FFFFFF;strokeWidth=2;fillColor=#000000;" vertex="1" parent="WIyWlLk6GJQsqaUBKTNV-1">
          <mxGeometry x="430" y="240" width="30" height="40" as="geometry" />
        </mxCell>
        <mxCell id="ut6s2wXP7T1YypfvQDY1-17" style="edgeStyle=orthogonalEdgeStyle;rounded=0;orthogonalLoop=1;jettySize=auto;html=1;exitX=0.5;exitY=1;exitDx=0;exitDy=0;entryX=0.5;entryY=0;entryDx=0;entryDy=0;curved=1;strokeColor=#FFFFFF;" edge="1" parent="WIyWlLk6GJQsqaUBKTNV-1" source="ut6s2wXP7T1YypfvQDY1-9" target="ut6s2wXP7T1YypfvQDY1-16">
          <mxGeometry relative="1" as="geometry">
            <mxPoint x="370" y="170" as="sourcePoint" />
            <mxPoint x="440" y="170" as="targetPoint" />
          </mxGeometry>
        </mxCell>
        <mxCell id="ut6s2wXP7T1YypfvQDY1-18" value="&lt;font color=&quot;#ffffff&quot;&gt;[Товар отсутствует]&lt;/font&gt;" style="text;html=1;align=center;verticalAlign=middle;whiteSpace=wrap;rounded=0;" vertex="1" parent="WIyWlLk6GJQsqaUBKTNV-1">
          <mxGeometry x="300" y="230" width="110" height="30" as="geometry" />
        </mxCell>
        <mxCell id="ut6s2wXP7T1YypfvQDY1-20" style="edgeStyle=orthogonalEdgeStyle;rounded=0;orthogonalLoop=1;jettySize=auto;html=1;exitX=0;exitY=0.5;exitDx=0;exitDy=0;entryX=1;entryY=0.5;entryDx=0;entryDy=0;curved=1;strokeColor=#FFFFFF;" edge="1" parent="WIyWlLk6GJQsqaUBKTNV-1" source="ut6s2wXP7T1YypfvQDY1-16" target="ut6s2wXP7T1YypfvQDY1-11">
          <mxGeometry relative="1" as="geometry">
            <mxPoint x="370" y="170" as="sourcePoint" />
            <mxPoint x="320" y="260" as="targetPoint" />
          </mxGeometry>
        </mxCell>
        <mxCell id="ut6s2wXP7T1YypfvQDY1-21" value="" style="rhombus;whiteSpace=wrap;html=1;strokeColor=#FFFFFF;strokeWidth=2;fillColor=#000000;" vertex="1" parent="WIyWlLk6GJQsqaUBKTNV-1">
          <mxGeometry x="100" y="65" width="30" height="40" as="geometry" />
        </mxCell>
        <mxCell id="ut6s2wXP7T1YypfvQDY1-22" value="" style="endArrow=classic;html=1;rounded=0;strokeColor=#FFFFFF;exitX=1;exitY=0.5;exitDx=0;exitDy=0;entryX=0;entryY=0.5;entryDx=0;entryDy=0;" edge="1" parent="WIyWlLk6GJQsqaUBKTNV-1" source="ut6s2wXP7T1YypfvQDY1-0" target="ut6s2wXP7T1YypfvQDY1-21">
          <mxGeometry width="50" height="50" relative="1" as="geometry">
            <mxPoint x="140" y="95" as="sourcePoint" />
            <mxPoint x="180" y="95" as="targetPoint" />
          </mxGeometry>
        </mxCell>
        <mxCell id="ut6s2wXP7T1YypfvQDY1-24" style="edgeStyle=orthogonalEdgeStyle;rounded=0;orthogonalLoop=1;jettySize=auto;html=1;exitX=0;exitY=0.5;exitDx=0;exitDy=0;entryX=0.5;entryY=1;entryDx=0;entryDy=0;curved=1;strokeColor=#FFFFFF;" edge="1" parent="WIyWlLk6GJQsqaUBKTNV-1" source="ut6s2wXP7T1YypfvQDY1-11" target="ut6s2wXP7T1YypfvQDY1-21">
          <mxGeometry relative="1" as="geometry">
            <mxPoint x="485" y="270" as="sourcePoint" />
            <mxPoint x="370" y="270" as="targetPoint" />
            <Array as="points">
              <mxPoint x="115" y="260" />
            </Array>
          </mxGeometry>
        </mxCell>
        <mxCell id="ut6s2wXP7T1YypfvQDY1-25" value="&lt;font color=&quot;#ffffff&quot;&gt;[Товар присутствует]&lt;/font&gt;" style="text;html=1;align=center;verticalAlign=middle;whiteSpace=wrap;rounded=0;" vertex="1" parent="WIyWlLk6GJQsqaUBKTNV-1">
          <mxGeometry x="445" y="230" width="115" height="30" as="geometry" />
        </mxCell>
        <mxCell id="ut6s2wXP7T1YypfvQDY1-26" style="edgeStyle=orthogonalEdgeStyle;rounded=0;orthogonalLoop=1;jettySize=auto;html=1;exitX=1;exitY=0.5;exitDx=0;exitDy=0;curved=1;strokeColor=#FFFFFF;entryX=0;entryY=0.5;entryDx=0;entryDy=0;" edge="1" parent="WIyWlLk6GJQsqaUBKTNV-1" source="ut6s2wXP7T1YypfvQDY1-16" target="ut6s2wXP7T1YypfvQDY1-32">
          <mxGeometry relative="1" as="geometry">
            <mxPoint x="485" y="270" as="sourcePoint" />
            <mxPoint x="580" y="260" as="targetPoint" />
          </mxGeometry>
        </mxCell>
        <mxCell id="ut6s2wXP7T1YypfvQDY1-28" value="" style="rhombus;whiteSpace=wrap;html=1;strokeColor=#FFFFFF;strokeWidth=2;fillColor=#000000;" vertex="1" parent="WIyWlLk6GJQsqaUBKTNV-1">
          <mxGeometry x="715" y="340" width="30" height="40" as="geometry" />
        </mxCell>
        <mxCell id="ut6s2wXP7T1YypfvQDY1-29" style="edgeStyle=orthogonalEdgeStyle;rounded=0;orthogonalLoop=1;jettySize=auto;html=1;exitX=0.5;exitY=1;exitDx=0;exitDy=0;entryX=0.5;entryY=0;entryDx=0;entryDy=0;curved=1;strokeColor=#FFFFFF;" edge="1" parent="WIyWlLk6GJQsqaUBKTNV-1" source="ut6s2wXP7T1YypfvQDY1-12" target="ut6s2wXP7T1YypfvQDY1-28">
          <mxGeometry relative="1" as="geometry">
            <mxPoint x="515" y="270" as="sourcePoint" />
            <mxPoint x="640" y="270" as="targetPoint" />
          </mxGeometry>
        </mxCell>
        <mxCell id="ut6s2wXP7T1YypfvQDY1-30" style="edgeStyle=orthogonalEdgeStyle;rounded=0;orthogonalLoop=1;jettySize=auto;html=1;exitX=0;exitY=0.5;exitDx=0;exitDy=0;entryX=1;entryY=0.5;entryDx=0;entryDy=0;curved=1;strokeColor=#FFFFFF;" edge="1" parent="WIyWlLk6GJQsqaUBKTNV-1" source="ut6s2wXP7T1YypfvQDY1-28" target="ut6s2wXP7T1YypfvQDY1-13">
          <mxGeometry relative="1" as="geometry">
            <mxPoint x="515" y="270" as="sourcePoint" />
            <mxPoint x="640" y="270" as="targetPoint" />
          </mxGeometry>
        </mxCell>
        <mxCell id="ut6s2wXP7T1YypfvQDY1-31" value="&lt;font color=&quot;#ffffff&quot;&gt;[Оплата не прошла]&lt;/font&gt;" style="text;html=1;align=center;verticalAlign=middle;whiteSpace=wrap;rounded=0;" vertex="1" parent="WIyWlLk6GJQsqaUBKTNV-1">
          <mxGeometry x="624" y="330" width="110" height="30" as="geometry" />
        </mxCell>
        <mxCell id="ut6s2wXP7T1YypfvQDY1-32" value="" style="rhombus;whiteSpace=wrap;html=1;strokeColor=#FFFFFF;strokeWidth=2;fillColor=#000000;" vertex="1" parent="WIyWlLk6GJQsqaUBKTNV-1">
          <mxGeometry x="560" y="240" width="30" height="40" as="geometry" />
        </mxCell>
        <mxCell id="ut6s2wXP7T1YypfvQDY1-33" style="edgeStyle=orthogonalEdgeStyle;rounded=0;orthogonalLoop=1;jettySize=auto;html=1;exitX=1;exitY=0.5;exitDx=0;exitDy=0;curved=1;strokeColor=#FFFFFF;entryX=0;entryY=0.5;entryDx=0;entryDy=0;" edge="1" parent="WIyWlLk6GJQsqaUBKTNV-1" source="ut6s2wXP7T1YypfvQDY1-32" target="ut6s2wXP7T1YypfvQDY1-12">
          <mxGeometry relative="1" as="geometry">
            <mxPoint x="515" y="270" as="sourcePoint" />
            <mxPoint x="590" y="270" as="targetPoint" />
          </mxGeometry>
        </mxCell>
        <mxCell id="ut6s2wXP7T1YypfvQDY1-34" style="edgeStyle=orthogonalEdgeStyle;rounded=0;orthogonalLoop=1;jettySize=auto;html=1;exitX=0.5;exitY=0;exitDx=0;exitDy=0;curved=1;strokeColor=#FFFFFF;entryX=0.5;entryY=1;entryDx=0;entryDy=0;" edge="1" parent="WIyWlLk6GJQsqaUBKTNV-1" source="ut6s2wXP7T1YypfvQDY1-13" target="ut6s2wXP7T1YypfvQDY1-32">
          <mxGeometry relative="1" as="geometry">
            <mxPoint x="590" y="270" as="sourcePoint" />
            <mxPoint x="680" y="270" as="targetPoint" />
          </mxGeometry>
        </mxCell>
        <mxCell id="ut6s2wXP7T1YypfvQDY1-35" style="edgeStyle=orthogonalEdgeStyle;rounded=0;orthogonalLoop=1;jettySize=auto;html=1;exitX=0.5;exitY=1;exitDx=0;exitDy=0;curved=1;strokeColor=#FFFFFF;entryX=0.5;entryY=0;entryDx=0;entryDy=0;" edge="1" parent="WIyWlLk6GJQsqaUBKTNV-1" source="ut6s2wXP7T1YypfvQDY1-28" target="ut6s2wXP7T1YypfvQDY1-14">
          <mxGeometry relative="1" as="geometry">
            <mxPoint x="590" y="270" as="sourcePoint" />
            <mxPoint x="680" y="270" as="targetPoint" />
          </mxGeometry>
        </mxCell>
        <mxCell id="ut6s2wXP7T1YypfvQDY1-36" value="&lt;font color=&quot;#ffffff&quot;&gt;[Оплата прошла]&lt;/font&gt;" style="text;html=1;align=center;verticalAlign=middle;whiteSpace=wrap;rounded=0;" vertex="1" parent="WIyWlLk6GJQsqaUBKTNV-1">
          <mxGeometry x="620" y="400" width="110" height="30" as="geometry" />
        </mxCell>
        <mxCell id="ut6s2wXP7T1YypfvQDY1-37" value="" style="ellipse;whiteSpace=wrap;html=1;aspect=fixed;strokeColor=#FFFFFF;strokeWidth=3;fillColor=#000000;" vertex="1" parent="WIyWlLk6GJQsqaUBKTNV-1">
          <mxGeometry x="555" y="451" width="40" height="40" as="geometry" />
        </mxCell>
        <mxCell id="ut6s2wXP7T1YypfvQDY1-38" value="" style="ellipse;whiteSpace=wrap;html=1;aspect=fixed;" vertex="1" parent="WIyWlLk6GJQsqaUBKTNV-1">
          <mxGeometry x="560" y="456" width="30" height="30" as="geometry" />
        </mxCell>
        <mxCell id="ut6s2wXP7T1YypfvQDY1-39" style="edgeStyle=orthogonalEdgeStyle;rounded=0;orthogonalLoop=1;jettySize=auto;html=1;exitX=0;exitY=0.5;exitDx=0;exitDy=0;entryX=1;entryY=0.5;entryDx=0;entryDy=0;curved=1;strokeColor=#FFFFFF;" edge="1" parent="WIyWlLk6GJQsqaUBKTNV-1" source="ut6s2wXP7T1YypfvQDY1-14" target="ut6s2wXP7T1YypfvQDY1-37">
          <mxGeometry relative="1" as="geometry">
            <mxPoint x="740" y="300" as="sourcePoint" />
            <mxPoint x="740" y="350" as="targetPoint" />
          </mxGeometry>
        </mxCell>
      </root>
    </mxGraphModel>
  </diagram>
</mxfile>
